<svg width="30" height="30" viewBox="0 0 30 30" fill="none" xmlns="http://www.w3.org/2000/svg">
<path d="M20.4545 24.6364V22.4545C20.4545 21.2972 19.9948 20.1873 19.1765 19.369C18.3581 18.5506 17.2482 18.0909 16.0909 18.0909H7.36364C6.20633 18.0909 5.09642 18.5506 4.27808 19.369C3.45974 20.1873 3 21.2972 3 22.4545V24.6364M27 24.6364V22.4545C26.9993 21.4877 26.6775 20.5485 26.0851 19.7843C25.4928 19.0202 24.6634 18.4744 23.7273 18.2327M19.3636 5.14182C20.3023 5.38215 21.1342 5.92804 21.7283 6.69343C22.3224 7.45882 22.6449 8.40018 22.6449 9.36909C22.6449 10.338 22.3224 11.2794 21.7283 12.0448C21.1342 12.8101 20.3023 13.356 19.3636 13.5964M16.0909 9.36364C16.0909 11.7736 14.1372 13.7273 11.7273 13.7273C9.3173 13.7273 7.36364 11.7736 7.36364 9.36364C7.36364 6.95367 9.3173 5 11.7273 5C14.1372 5 16.0909 6.95367 16.0909 9.36364Z" stroke="#DEB4FF" stroke-width="1.5" stroke-linecap="round" stroke-linejoin="round"/>
</svg>
