<svg width="30" height="30" viewBox="0 0 30 30" fill="none" xmlns="http://www.w3.org/2000/svg">
<path d="M27 14.3334C27.0046 16.0932 26.5934 17.8292 25.8 19.4C24.8592 21.2823 23.413 22.8656 21.6232 23.9724C19.8335 25.0792 17.771 25.6659 15.6666 25.6667C13.9068 25.6713 12.1708 25.2601 10.6 24.4667L3 27L5.53333 19.4C4.73991 17.8292 4.32874 16.0932 4.33333 14.3334C4.33415 12.229 4.92081 10.1665 6.02762 8.37676C7.13443 6.58703 8.71766 5.14079 10.6 4.20004C12.1708 3.40661 13.9068 2.99545 15.6666 3.00004H16.3333C19.1124 3.15336 21.7374 4.32638 23.7055 6.29451C25.6736 8.26264 26.8466 10.8876 27 13.6667V14.3334Z" stroke="#DEB4FF" stroke-width="2" stroke-linecap="round" stroke-linejoin="round"/>
</svg>
