<svg width="30" height="30" viewBox="0 0 30 30" fill="none" xmlns="http://www.w3.org/2000/svg">
<path d="M21.2857 12H22.4286C23.641 12 24.8038 12.4816 25.6611 13.3389C26.5184 14.1962 27 15.359 27 16.5714C27 17.7838 26.5184 18.9466 25.6611 19.8039C24.8038 20.6612 23.641 21.1429 22.4286 21.1429H21.2857M21.2857 12H3V22.2857C3 23.4981 3.48163 24.6609 4.33894 25.5182C5.19625 26.3755 6.35901 26.8571 7.57143 26.8571H16.7143C17.9267 26.8571 19.0895 26.3755 19.9468 25.5182C20.8041 24.6609 21.2857 23.4981 21.2857 22.2857V12ZM7.57143 4V7.42857M12.1429 4V7.42857M16.7143 4V7.42857" stroke="#DEB4FF" stroke-width="2" stroke-linecap="round" stroke-linejoin="round"/>
</svg>
