<svg width="111" height="32" viewBox="0 0 111 32" fill="none" xmlns="http://www.w3.org/2000/svg">
<path d="M28.2079 0.921406C27.028 0.91934 25.8593 1.15068 24.7692 1.60212C23.6791 2.05355 22.689 2.71616 21.856 3.55178L11.2675 14.1382L9.15018 12.0209C8.8639 11.7447 8.6355 11.4143 8.47834 11.0488C8.32118 10.6834 8.2384 10.2903 8.23483 9.89252C8.23126 9.49474 8.30698 9.10023 8.45756 8.73203C8.60814 8.36383 8.83057 8.02932 9.11186 7.74803C9.39314 7.46675 9.72765 7.24432 10.0959 7.09373C10.4641 6.94315 10.8586 6.86744 11.2563 6.871C11.6541 6.87457 12.0472 6.95735 12.4127 7.11452C12.7781 7.27168 13.1086 7.50007 13.3848 7.78636L17.6214 3.55178C15.9297 1.90161 13.6558 0.984473 11.2926 0.999083C8.92931 1.01369 6.66698 1.95887 4.99574 3.62984C3.3245 5.3008 2.37895 7.56297 2.36395 9.92622C2.34895 12.2895 3.26571 14.5635 4.91561 16.2555L11.2675 22.6074L32.0801 1.79471C30.8711 1.21705 29.5478 0.918589 28.2079 0.921406Z" fill="white"/>
<path d="M36.3147 6.03137L28.2079 14.1403L26.0906 12.0209L21.856 16.2555L23.9733 18.3728L15.5042 26.8419L19.7387 31.0786L34.5597 16.2576C35.8734 14.9435 36.7474 13.2546 37.0617 11.4233C37.376 9.59197 37.115 7.70826 36.3147 6.03137Z" fill="white"/>
<path d="M45.2332 11.1107H48.0228V14.5929H51.9008V11.1107H54.6925V20.6296H51.9008V16.9062H48.0228V20.6296H45.2332V11.1107Z" fill="white"/>
<path d="M63.4078 20.1455C63.2522 20.2262 63.092 20.2997 62.9281 20.3655C62.7057 20.4573 62.4761 20.5341 62.2412 20.5951C61.9516 20.6734 61.6574 20.7373 61.36 20.7865C61.0158 20.8398 60.6672 20.8661 60.3181 20.8649C58.9529 20.8649 57.9075 20.553 57.1819 19.9293C56.4563 19.3055 56.0935 18.4324 56.0935 17.3099C56.0947 16.8613 56.1746 16.4156 56.3302 15.9897C56.4845 15.5682 56.7286 15.1781 57.0487 14.8417C57.3848 14.4939 57.7982 14.2142 58.2618 14.0209C58.7989 13.8028 59.3829 13.6956 59.9715 13.7071C60.4591 13.7042 60.9429 13.784 61.398 13.9424C61.8416 14.0972 62.2405 14.3412 62.5646 14.6561C62.9139 15.0028 63.1802 15.4113 63.3465 15.8558C63.5462 16.4009 63.6419 16.9729 63.6297 17.5472V17.9987H58.6168C58.6299 18.122 58.6641 18.2427 58.7183 18.3565C58.7871 18.4927 58.8898 18.6125 59.0184 18.7066C59.1865 18.8281 59.3798 18.9179 59.5869 18.9707C59.8714 19.0432 60.1663 19.0768 60.4618 19.0702C60.8803 19.0747 61.2971 19.0218 61.6981 18.9133C62.0029 18.8349 62.2966 18.7245 62.573 18.5842L63.4078 20.1455ZM61.2649 16.5618C61.2633 16.4398 61.2368 16.3192 61.1867 16.2059C61.1307 16.0782 61.0474 15.9618 60.9415 15.8634C60.8239 15.7534 60.6849 15.6639 60.5315 15.5994C60.3457 15.5238 60.1434 15.4872 59.9398 15.4922C59.7391 15.489 59.54 15.5256 59.3565 15.5994C59.2019 15.6619 59.0625 15.7517 58.9465 15.8634C58.8452 15.9632 58.7656 16.0794 58.7119 16.2059C58.6612 16.3191 58.634 16.4397 58.6316 16.5618H61.2649Z" fill="white"/>
<path d="M64.4328 17.3195L68.6743 11.6387H71.3075V17.1339H72.3008V19.0606H71.3075V20.6295H68.8623V19.0606H64.4243L64.4328 17.3195ZM68.8708 17.1281V14.4494L66.8547 17.1281H68.8708Z" fill="white"/>
<path d="M73.7019 13.9232H76.2717L76.3668 14.7651C76.5774 14.4964 76.8419 14.266 77.1467 14.0859C77.484 13.8938 77.8769 13.7972 78.2752 13.8084C78.4567 13.8069 78.6382 13.8165 78.8183 13.8371C78.9551 13.853 79.0897 13.8819 79.2199 13.9232L78.8733 15.9782C78.6211 15.9207 78.362 15.8918 78.1019 15.8921C76.9438 15.8921 76.3654 16.4661 76.3668 17.6141V20.6238H73.7019V13.9232Z" fill="white"/>
<path d="M80.7815 15.7773H79.6931V13.9233H80.7815V12.0521H83.4443V13.9233H85.2745V15.7773H83.4443V18.148C83.4443 18.699 83.7331 18.9745 84.3108 18.9745C84.4823 18.9743 84.6518 18.9404 84.8074 18.8751C84.9643 18.8107 85.1148 18.7346 85.2576 18.6474L86.2973 20.1302C85.9608 20.3698 85.5831 20.5579 85.1794 20.687C84.773 20.8207 84.3438 20.8887 83.9114 20.8879C83.398 20.9015 82.8867 20.8235 82.4067 20.6583C82.0286 20.5252 81.6946 20.3064 81.4366 20.0231C81.186 19.7365 81.0105 19.4022 80.9231 19.0453C80.8207 18.638 80.7711 18.2213 80.7751 17.8036L80.7815 15.7773Z" fill="white"/>
<path d="M91.9762 20.069C91.9403 20.1073 91.8832 20.1666 91.8029 20.245C91.7078 20.3354 91.5997 20.4139 91.4817 20.4785C91.3342 20.5575 91.1776 20.6217 91.0146 20.6698C90.8103 20.7313 90.5959 20.7604 90.3806 20.7559C90.0837 20.7584 89.7896 20.7029 89.5184 20.5933C89.2543 20.4876 89.018 20.3324 88.8252 20.1379C88.6207 19.9286 88.4653 19.6839 88.3687 19.4185C88.2555 19.1141 88.2005 18.7944 88.206 18.4733C88.1953 18.1011 88.2777 17.7315 88.4469 17.3922C88.5928 17.1088 88.8023 16.856 89.0619 16.6499C89.2984 16.4621 89.5734 16.3184 89.8713 16.227C90.1362 16.1423 90.4146 16.0971 90.6955 16.0931C90.9745 16.0823 91.2531 16.1213 91.5155 16.2079C91.712 16.2844 91.8621 16.3418 91.9678 16.3801V14.2754H92.9124V20.1704C92.9124 20.3139 92.9124 20.4651 92.923 20.622H91.9995L91.9762 20.069ZM91.9762 17.1856C91.8533 17.1074 91.7232 17.0389 91.5874 16.9809C91.3313 16.8846 91.0549 16.8408 90.7779 16.8527C90.5601 16.8506 90.3442 16.8897 90.1439 16.9675C89.9528 17.0427 89.7809 17.1528 89.6389 17.2908C89.4892 17.4391 89.3748 17.6136 89.3028 17.8036C89.2195 18.0246 89.1787 18.257 89.1824 18.4905C89.1807 18.6908 89.2092 18.8903 89.2669 19.0836C89.3163 19.2607 89.404 19.4272 89.5247 19.5734C89.6399 19.7143 89.7916 19.8273 89.9664 19.9025C90.165 19.9854 90.3819 20.0259 90.6004 20.0212C90.8196 20.0272 91.0371 19.9852 91.2344 19.8987C91.3979 19.8235 91.5419 19.7179 91.6571 19.5888C91.7653 19.467 91.8477 19.3282 91.9001 19.1793C91.9486 19.0458 91.975 18.9065 91.9783 18.766L91.9762 17.1856Z" fill="white"/>
<path d="M98.7007 19.9828C98.6218 20.0607 98.5378 20.1342 98.4492 20.2029C98.3158 20.3037 98.1697 20.3897 98.0138 20.4592C97.8108 20.5493 97.5984 20.6211 97.3798 20.6735C97.1107 20.7363 96.8335 20.7666 96.5556 20.7635C96.2002 20.767 95.8474 20.7092 95.5159 20.5932C95.211 20.485 94.9351 20.3193 94.7065 20.1072C94.4777 19.8917 94.3006 19.6357 94.1866 19.3552C94.0602 19.0448 93.9979 18.716 94.0027 18.3852C94 18.0749 94.0602 17.7669 94.1802 17.4763C94.2921 17.2037 94.4639 16.9544 94.6853 16.7435C94.9043 16.5359 95.1665 16.3694 95.4567 16.2537C95.7663 16.1307 96.1013 16.0687 96.4394 16.0719C96.8146 16.063 97.1865 16.1386 97.5214 16.292C97.8143 16.4289 98.0682 16.6254 98.2632 16.866C98.4586 17.1165 98.6019 17.3973 98.6859 17.6945C98.7773 18.0111 98.8228 18.3372 98.8211 18.6645H94.96C94.9649 18.852 95.0131 19.0365 95.1016 19.206C95.187 19.3685 95.3069 19.5142 95.4546 19.6346C95.6025 19.7565 95.7737 19.8531 95.9597 19.9197C96.1493 19.9903 96.3526 20.0261 96.5577 20.0249C96.9094 20.0364 97.2588 19.9707 97.5764 19.8336C97.7908 19.7398 97.9865 19.6143 98.1554 19.4624L98.7007 19.9828ZM97.8553 18.0331C97.8278 17.7062 97.6788 17.3973 97.4327 17.1568C97.3037 17.0334 97.1464 16.9371 96.9719 16.8746C96.7973 16.8121 96.6098 16.785 96.4225 16.7952C96.2152 16.7929 96.0096 16.8287 95.8181 16.9004C95.6486 16.9663 95.4939 17.0597 95.3616 17.1759C95.2361 17.2894 95.1364 17.4239 95.0678 17.572C94.9982 17.7179 94.9588 17.8743 94.9516 18.0331H97.8553Z" fill="white"/>
<path d="M99.0706 16.2059H100.153L101.676 19.6595L103.189 16.2059H104.208L102.118 20.6295H101.171L99.0706 16.2059Z" fill="white"/>
<path d="M105.092 19.5179C105.274 19.6812 105.489 19.8112 105.726 19.9006C105.994 19.9982 106.281 20.0463 106.571 20.0422C106.843 20.0537 107.115 20.0092 107.365 19.9121C107.461 19.878 107.542 19.8182 107.598 19.7408C107.655 19.6635 107.683 19.5723 107.68 19.4797C107.684 19.3884 107.66 19.298 107.613 19.2175C107.556 19.1365 107.476 19.0705 107.382 19.0262C107.248 18.9598 107.107 18.9071 106.96 18.8693C106.78 18.8215 106.558 18.7698 106.292 18.7124C106.101 18.6743 105.913 18.6231 105.73 18.5594C105.55 18.4994 105.382 18.4149 105.231 18.3087C105.084 18.2045 104.963 18.0743 104.874 17.926C104.778 17.7603 104.731 17.5753 104.736 17.3884C104.73 17.187 104.786 16.9881 104.899 16.8144C105.009 16.6504 105.158 16.5105 105.335 16.4049C105.524 16.2918 105.731 16.2066 105.95 16.1524C106.181 16.0946 106.42 16.0656 106.66 16.0663C107.019 16.0599 107.376 16.1104 107.716 16.2155C108.003 16.3075 108.269 16.4477 108.498 16.6288L107.985 17.2181C107.821 17.089 107.635 16.9861 107.433 16.9139C107.187 16.8272 106.924 16.7849 106.66 16.7895C106.41 16.78 106.161 16.826 105.935 16.9234C105.847 16.9646 105.775 17.0279 105.726 17.1057C105.678 17.1836 105.656 17.2725 105.662 17.3616C105.665 17.4577 105.701 17.5506 105.766 17.6267C105.831 17.7027 105.921 17.758 106.024 17.7844C106.332 17.895 106.65 17.9827 106.975 18.0466C107.194 18.0931 107.41 18.1519 107.621 18.2226C107.81 18.2835 107.987 18.37 108.147 18.479C108.295 18.582 108.417 18.7125 108.505 18.8617C108.596 19.0339 108.641 19.2235 108.636 19.4146C108.64 19.6202 108.581 19.8228 108.467 20.0001C108.353 20.1695 108.199 20.3139 108.016 20.423C107.817 20.5404 107.597 20.6264 107.365 20.6774C107.115 20.7355 106.857 20.7644 106.598 20.7635C105.675 20.7635 104.98 20.5378 104.519 20.0881L105.092 19.5179Z" fill="white"/>
</svg>
