<svg width="41" height="32" viewBox="0 0 41 32" fill="none" xmlns="http://www.w3.org/2000/svg">
<path d="M28.9305 0.921406C27.7506 0.91934 26.582 1.15068 25.4918 1.60212C24.4017 2.05355 23.4117 2.71616 22.5787 3.55178L11.9901 14.1382L9.87284 12.0209C9.58655 11.7447 9.35816 11.4143 9.201 11.0488C9.04383 10.6834 8.96105 10.2903 8.95748 9.89252C8.95392 9.49474 9.02963 9.10023 9.18022 8.73203C9.3308 8.36383 9.55322 8.02932 9.83451 7.74803C10.1158 7.46675 10.4503 7.24432 10.8185 7.09373C11.1867 6.94315 11.5812 6.86744 11.979 6.871C12.3768 6.87457 12.7699 6.95735 13.1353 7.11452C13.5007 7.27168 13.8312 7.50007 14.1074 7.78636L18.3441 3.55178C16.6523 1.90161 14.3785 0.984473 12.0152 0.999083C9.65197 1.01369 7.38964 1.95887 5.7184 3.62984C4.04716 5.3008 3.10161 7.56297 3.08661 9.92622C3.07161 12.2895 3.98837 14.5635 5.63827 16.2555L11.9901 22.6074L32.8028 1.79471C31.5938 1.21705 30.2704 0.918589 28.9305 0.921406Z" fill="white"/>
<path d="M37.0374 6.03137L28.9305 14.1403L26.8132 12.0209L22.5787 16.2555L24.696 18.3728L16.2268 26.8419L20.4614 31.0786L35.2824 16.2576C36.596 14.9435 37.4701 13.2546 37.7844 11.4233C38.0987 9.59197 37.8377 7.70826 37.0374 6.03137Z" fill="white"/>
</svg>
