<svg width="26" height="22" viewBox="0 0 26 22" fill="none" xmlns="http://www.w3.org/2000/svg">
<path d="M18.4545 20.8181V18.6363C18.4545 17.479 17.9948 16.3691 17.1765 15.5508C16.3581 14.7324 15.2482 14.2727 14.0909 14.2727H5.36364C4.20633 14.2727 3.09642 14.7324 2.27808 15.5508C1.45974 16.3691 1 17.479 1 18.6363V20.8181M25 20.8181V18.6363C24.9993 17.6695 24.6775 16.7302 24.0851 15.9661C23.4928 15.202 22.6634 14.6562 21.7273 14.4145M17.3636 1.32358C18.3023 1.56391 19.1342 2.1098 19.7283 2.87519C20.3224 3.64058 20.6449 4.58194 20.6449 5.55085C20.6449 6.51977 20.3224 7.46112 19.7283 8.22651C19.1342 8.99191 18.3023 9.5378 17.3636 9.77813M14.0909 5.5454C14.0909 7.95537 12.1372 9.90904 9.72727 9.90904C7.3173 9.90904 5.36364 7.95537 5.36364 5.5454C5.36364 3.13543 7.3173 1.18176 9.72727 1.18176C12.1372 1.18176 14.0909 3.13543 14.0909 5.5454Z" stroke="#DEB4FF" stroke-width="1.5" stroke-linecap="round" stroke-linejoin="round"/>
</svg>
