<svg width="30" height="30" viewBox="0 0 30 30" fill="none" xmlns="http://www.w3.org/2000/svg">
<path d="M23.317 6.96018C21.761 6.24595 20.119 5.73663 18.4319 5.44498C18.4166 5.44212 18.4007 5.44417 18.3867 5.45083C18.3726 5.45749 18.3609 5.46843 18.3534 5.48208C18.1424 5.85738 17.9087 6.34688 17.7451 6.73158C15.9004 6.45538 14.0651 6.45538 12.2583 6.73158C12.0947 6.33828 11.8525 5.85738 11.6406 5.48208C11.6328 5.46874 11.6211 5.45807 11.6071 5.45147C11.5931 5.44487 11.5774 5.44264 11.5621 5.44508C9.87488 5.73605 8.2327 6.24532 6.6769 6.96008C6.66359 6.96577 6.65238 6.97545 6.6448 6.98778C3.5334 11.6362 2.681 16.1703 3.0992 20.6482C3.10039 20.6591 3.10376 20.6698 3.10912 20.6794C3.11448 20.689 3.12171 20.6975 3.1304 20.7043C5.1832 22.2119 7.1717 23.1271 9.1233 23.7337C9.13848 23.7382 9.15468 23.738 9.16972 23.7331C9.18477 23.7281 9.19795 23.7187 9.2075 23.7061C9.6691 23.0757 10.0806 22.4109 10.4335 21.7119C10.4384 21.7023 10.4411 21.6918 10.4416 21.6811C10.4421 21.6704 10.4404 21.6597 10.4364 21.6497C10.4325 21.6397 10.4265 21.6307 10.4188 21.6232C10.4112 21.6157 10.402 21.6099 10.3919 21.6062C9.7391 21.3586 9.1176 21.0567 8.5197 20.7139C8.5088 20.7075 8.49964 20.6985 8.49304 20.6877C8.48643 20.6769 8.48258 20.6647 8.48183 20.6521C8.48108 20.6394 8.48345 20.6268 8.48873 20.6153C8.49401 20.6038 8.50204 20.5938 8.5121 20.5862C8.6379 20.4919 8.7638 20.3939 8.8839 20.2948C8.89458 20.286 8.9075 20.2803 8.92121 20.2785C8.93492 20.2766 8.94887 20.2786 8.9615 20.2843C12.8893 22.0776 17.1415 22.0776 21.0229 20.2843C21.0355 20.2783 21.0496 20.276 21.0635 20.2776C21.0774 20.2793 21.0906 20.2849 21.1014 20.2938C21.2216 20.3928 21.3474 20.4919 21.4742 20.5862C21.4843 20.5938 21.4924 20.6037 21.4977 20.6151C21.5031 20.6266 21.5055 20.6391 21.5049 20.6517C21.5042 20.6643 21.5005 20.6766 21.494 20.6874C21.4875 20.6982 21.4784 20.7073 21.4676 20.7138C20.8695 21.0631 20.2429 21.3613 19.5946 21.6052C19.5845 21.609 19.5754 21.615 19.5678 21.6226C19.5602 21.6302 19.5542 21.6394 19.5504 21.6494C19.5466 21.6595 19.5449 21.6703 19.5455 21.681C19.5461 21.6918 19.549 21.7023 19.5539 21.7119C19.9143 22.4099 20.3258 23.0747 20.7789 23.7051C20.7882 23.7181 20.8013 23.7278 20.8164 23.733C20.8315 23.7381 20.8478 23.7384 20.8631 23.7337C22.8241 23.127 24.8126 22.2118 26.8654 20.7043C26.8742 20.6978 26.8816 20.6896 26.887 20.6801C26.8924 20.6705 26.8957 20.66 26.8967 20.6491C27.3971 15.4721 26.0585 10.9752 23.3482 6.98868C23.3416 6.97573 23.3305 6.96569 23.317 6.96018ZM11.02 17.9216C9.8375 17.9216 8.8631 16.8359 8.8631 15.5026C8.8631 14.1694 9.8186 13.0837 11.0201 13.0837C12.2309 13.0837 13.1958 14.1789 13.1769 15.5027C13.1769 16.8359 12.2214 17.9216 11.02 17.9216ZM18.9948 17.9216C17.8123 17.9216 16.8379 16.8359 16.8379 15.5026C16.8379 14.1694 17.7933 13.0837 18.9948 13.0837C20.2056 13.0837 21.1705 14.1789 21.1516 15.5027C21.1516 16.8359 20.2056 17.9216 18.9948 17.9216Z" fill="white"/>
</svg>
