<svg width="30" height="30" viewBox="0 0 30 30" fill="none" xmlns="http://www.w3.org/2000/svg">
<path d="M15 3C8.37 3 3 8.373 3 15C3 20.303 6.438 24.8 11.205 26.385C11.805 26.498 12.025 26.127 12.025 25.808C12.025 25.523 12.015 24.768 12.01 23.768C8.672 24.492 7.968 22.158 7.968 22.158C7.422 20.773 6.633 20.403 6.633 20.403C5.546 19.659 6.717 19.674 6.717 19.674C7.922 19.758 8.555 20.91 8.555 20.91C9.625 22.745 11.364 22.215 12.05 21.908C12.158 21.132 12.467 20.603 12.81 20.303C10.145 20.003 7.344 18.971 7.344 14.373C7.344 13.063 7.809 11.993 8.579 11.153C8.444 10.85 8.039 9.63 8.684 7.977C8.684 7.977 9.689 7.655 11.984 9.207C12.944 8.94 13.964 8.808 14.984 8.802C16.004 8.808 17.024 8.94 17.984 9.207C20.264 7.655 21.269 7.977 21.269 7.977C21.914 9.63 21.509 10.85 21.389 11.153C22.154 11.993 22.619 13.063 22.619 14.373C22.619 18.983 19.814 19.998 17.144 20.293C17.564 20.653 17.954 21.389 17.954 22.513C17.954 24.119 17.939 25.409 17.939 25.799C17.939 26.114 18.149 26.489 18.764 26.369C23.565 24.795 27 20.295 27 15C27 8.373 21.627 3 15 3Z" fill="white"/>
</svg>
