<svg width="30" height="30" viewBox="0 0 30 30" fill="none" xmlns="http://www.w3.org/2000/svg">
<path d="M26.953 7.32351C26.0545 7.71911 25.1026 7.98024 24.128 8.09851C25.1541 7.48176 25.9224 6.51455 26.291 5.37551C25.34 5.93051 24.286 6.33451 23.164 6.55951C22.4238 5.76793 21.4429 5.24293 20.3736 5.06601C19.3044 4.88909 18.2067 5.07016 17.2509 5.5811C16.2952 6.09204 15.5349 6.90426 15.0881 7.89163C14.6412 8.879 14.533 9.98627 14.78 11.0415C10.69 10.8485 7.067 8.8835 4.64 5.91551C4.19879 6.66532 3.96866 7.52053 3.974 8.39051C3.974 10.1005 4.844 11.6035 6.162 12.4865C5.38086 12.4616 4.61697 12.2504 3.934 11.8705V11.9305C3.93356 13.0669 4.32627 14.1684 5.04551 15.0483C5.76474 15.9281 6.76621 16.532 7.88 16.7575C7.1583 16.9509 6.40241 16.9799 5.668 16.8425C5.98412 17.8205 6.59766 18.6754 7.42301 19.288C8.24837 19.9006 9.24435 20.2402 10.272 20.2595C8.53153 21.6255 6.38248 22.3668 4.17 22.3645C3.78 22.3645 3.391 22.3415 3 22.2975C5.25571 23.7418 7.87851 24.5085 10.557 24.5065C19.61 24.5065 24.555 17.0105 24.555 10.5215C24.555 10.3115 24.555 10.1015 24.54 9.89151C25.506 9.19637 26.3392 8.33332 27 7.34351L26.953 7.32351Z" fill="white"/>
</svg>
